<?xml version="1.0" encoding="utf-8"?>
<!-- Generator: Adobe Illustrator 21.1.0, SVG Export Plug-In . SVG Version: 6.00 Build 0)  -->
<svg version="1.1" id="Слой_1" xmlns="http://www.w3.org/2000/svg" xmlns:xlink="http://www.w3.org/1999/xlink" x="0px" y="0px"
	 viewBox="0 0 512 477" style="enable-background:new 0 0 512 477;" xml:space="preserve">
<path d="M503.6,377L315.1,35C303.3,13.4,280.6,0,256,0s-47.3,13.4-59.1,35L8.4,377C2.9,386.9,0,398.1,0,409.5
	C0,446.7,30.3,477,67.5,477h377c37.2,0,67.5-30.3,67.5-67.5C512,398.1,509.1,386.9,503.6,377z M444.5,462h-377
	C38.6,462,15,438.4,15,409.5c0-8.8,2.2-17.6,6.5-25.3L210,42.2c9.2-16.8,26.9-27.2,46-27.2s36.8,10.4,46,27.2l188.5,342
	c4.2,7.7,6.5,16.5,6.5,25.3C497,438.4,473.4,462,444.5,462z"/>
<path d="M288.9,49.4C282.3,37.4,269.7,30,256,30s-26.3,7.4-32.9,19.4l-87,157.9c-2,3.6-0.7,8.2,2.9,10.2c3.6,2,8.2,0.7,10.2-2.9
	l87-157.9c4-7.2,11.5-11.7,19.7-11.7s15.8,4.5,19.7,11.7l188.5,342c1.8,3.3,2.8,7,2.8,10.8c0,12.4-10.1,22.5-22.5,22.5h-377
	C55.1,432,45,421.9,45,409.5c0-3.8,0.9-7.5,2.8-10.8l87-157.9c2-3.6,0.7-8.2-2.9-10.2s-8.2-0.7-10.2,2.9l-87,157.9
	c-3.1,5.6-4.6,11.6-4.6,18.1c0,20.7,16.8,37.5,37.5,37.5h377c20.7,0,37.5-16.8,37.5-37.5c0-6.4-1.6-12.5-4.6-18.1L288.9,49.4z"/>
<path d="M256,387c12.4,0,22.5-10.1,22.5-22.5S268.4,342,256,342s-22.5,10.1-22.5,22.5S243.6,387,256,387z M256,357
	c4.1,0,7.5,3.4,7.5,7.5s-3.4,7.5-7.5,7.5s-7.5-3.4-7.5-7.5S251.9,357,256,357z"/>
<path d="M256,327c12.4,0,22.5-10.1,22.5-22.5v-120c0-12.4-10.1-22.5-22.5-22.5s-22.5,10.1-22.5,22.5v120
	C233.5,316.9,243.6,327,256,327z M248.5,184.5c0-4.1,3.4-7.5,7.5-7.5s7.5,3.4,7.5,7.5v120c0,4.1-3.4,7.5-7.5,7.5s-7.5-3.4-7.5-7.5
	V184.5z"/>
</svg>
